# xmcd
#
# Track frame offsets:
#	150
#	12267
#	23890
#	33762
#	47467
#	57150
#	75897
#	88477
#	99857
#	113117
#	127700
#	140060
#
# Disc length: 1984 seconds
#
# Revision: 0
# Processed by: cddbd v1.5.1PL2 Copyright (c) Steve Scherf et al.
# Submitted via: EasyCDDAExtractor 8.1.2.3
#
DISCID=8607be0c
DTITLE=Banda Caña Verde - Amor Traicionero
DYEAR=1900
DGENRE=
TTITLE0=Amor Traicionero
TTITLE1=La Prieta Floja
TTITLE2=Lunarcito
TTITLE3=La Verdad De Una Tragedia
TTITLE4=La Cotorra
TTITLE5=Quiero Dormir Cansado
TTITLE6=Elvira
TTITLE7=Por Andar En La Parranda
TTITLE8=Estrenando
TTITLE9=Jose Bertoldo
TTITLE10=La Celestina
TTITLE11=La Puerta Del Amor
EXTD=
EXTT0=
EXTT1=
EXTT2=
EXTT3=
EXTT4=
EXTT5=
EXTT6=
EXTT7=
EXTT8=
EXTT9=
EXTT10=
EXTT11=
PLAYORDER=
